<svg width="32" height="32" viewBox="0 0 32 32" fill="none" xmlns="http://www.w3.org/2000/svg">
<path fill-rule="evenodd" clip-rule="evenodd" d="M28.2033 16C28.2033 22.6734 22.7881 28.2074 15.9567 28.2074C9.1254 28.2074 3.71014 22.6734 3.71014 16C3.71014 9.32661 9.1254 3.79259 15.9567 3.79259C22.7881 3.79259 28.2033 9.32661 28.2033 16ZM31.9135 16C31.9135 24.8366 24.7694 32 15.9567 32C7.14408 32 0 24.8366 0 16C0 7.16344 7.14408 0 15.9567 0C24.7694 0 31.9135 7.16344 31.9135 16ZM18.4382 14.7883C19.9095 13.9376 20.9024 12.3253 20.9024 10.4762C20.9024 7.74107 18.7299 5.52381 16.05 5.52381C13.3702 5.52381 11.1977 7.74107 11.1977 10.4762C11.1977 12.4298 12.306 14.1192 13.916 14.9252L11.5612 24.2716C11.3767 25.0039 11.9303 25.7143 12.6855 25.7143H19.6147C20.3656 25.7143 20.9185 25.0113 20.7414 24.2815L18.4382 14.7883ZM16.7434 12.381C16.5513 12.381 16.3956 12.2218 16.3956 12.0254V11.5389H15.4411V12.0254C15.4411 12.2218 15.2853 12.381 15.0932 12.381C14.9011 12.381 14.7454 12.2218 14.7454 12.0254V11.5389H14.345C14.1529 11.5389 13.9972 11.3797 13.9972 11.1833C13.9972 10.9869 14.1529 10.8277 14.345 10.8277H14.7454V10.0652H14.345C14.1529 10.0652 13.9972 9.90597 13.9972 9.70961C13.9972 9.51324 14.1529 9.35405 14.345 9.35405H14.7454V8.73652C14.7454 8.54015 14.9011 8.38096 15.0932 8.38096C15.2853 8.38096 15.4411 8.54015 15.4411 8.73652V9.35405H16.3956V8.73652C16.3956 8.54015 16.5513 8.38096 16.7434 8.38096C16.9355 8.38096 17.0913 8.54015 17.0913 8.73652V9.35405H17.5685C17.7606 9.35405 17.9164 9.51324 17.9164 9.70961C17.9164 9.90597 17.7606 10.0652 17.5685 10.0652H17.0913V10.8277H17.5685C17.7606 10.8277 17.9164 10.9869 17.9164 11.1833C17.9164 11.3797 17.7606 11.5389 17.5685 11.5389H17.0913V12.0254C17.0913 12.2218 16.9355 12.381 16.7434 12.381ZM15.4411 10.0652V10.8277H16.3956V10.0652L15.4411 10.0652Z" fill="url(#paint0_linear_1201_903)"/>
<defs>
<linearGradient id="paint0_linear_1201_903" x1="1.25151" y1="32" x2="42.3044" y2="17.2415" gradientUnits="userSpaceOnUse">
<stop offset="0.192708" stop-color="#8BECFF"/>
<stop offset="0.619792" stop-color="#F49CF8"/>
<stop offset="1" stop-color="#F0FE98"/>
</linearGradient>
</defs>
</svg>
