<svg width="21" height="20" viewBox="0 0 21 20" fill="none" xmlns="http://www.w3.org/2000/svg">
<path fill-rule="evenodd" clip-rule="evenodd" d="M20.088 9.72009C19.9397 4.32667 15.521 0 10.0918 0C4.56895 0 0.0917969 4.47715 0.0917969 10C0.0917969 15.5228 4.56895 20 10.0918 20C11.5433 20 12.953 19.6899 14.246 19.0987C14.7482 18.8691 14.9692 18.2757 14.7396 17.7734C14.5099 17.2712 13.9166 17.0502 13.4143 17.2798C12.3811 17.7523 11.2549 18 10.0918 18C5.67352 18 2.0918 14.4183 2.0918 10C2.0918 5.58172 5.67352 2 10.0918 2C14.5101 2 18.0918 5.58172 18.0918 10V11L18.0865 11.1689C18.02 12.2246 17.3366 13 16.5918 13C15.8078 13 15.0918 12.1408 15.0918 11V10L15.0872 9.78311C14.9736 7.12231 12.7806 5 10.0918 5C7.33037 5 5.0918 7.23858 5.0918 10C5.0918 12.7614 7.33037 15 10.0918 15C11.55 15 12.8624 14.3758 13.7757 13.3803C14.4057 14.357 15.4187 15 16.5918 15C18.5692 15 20.0918 13.1729 20.0918 11V10L20.088 9.72009ZM7.0918 10C7.0918 8.34315 8.43494 7 10.0918 7C11.7487 7 13.0918 8.34315 13.0918 10C13.0918 11.6569 11.7487 13 10.0918 13C8.43494 13 7.0918 11.6569 7.0918 10Z" fill="#8A94A6"/>
</svg>
