<svg width="119" height="72" viewBox="0 0 119 72" fill="none" xmlns="http://www.w3.org/2000/svg">
<g filter="url(#filter0_d_1201_645)">
<path d="M38.664 23.288C38.664 23.776 38.552 24.224 38.328 24.632C38.104 25.032 37.76 25.356 37.296 25.604C36.832 25.852 36.256 25.976 35.568 25.976H34.296V29H32.244V20.576H35.568C36.24 20.576 36.808 20.692 37.272 20.924C37.736 21.156 38.084 21.476 38.316 21.884C38.548 22.292 38.664 22.76 38.664 23.288ZM35.412 24.344C35.804 24.344 36.096 24.252 36.288 24.068C36.48 23.884 36.576 23.624 36.576 23.288C36.576 22.952 36.48 22.692 36.288 22.508C36.096 22.324 35.804 22.232 35.412 22.232H34.296V24.344H35.412ZM43.7163 29.084C42.9243 29.084 42.1963 28.9 41.5323 28.532C40.8763 28.164 40.3523 27.652 39.9603 26.996C39.5763 26.332 39.3843 25.588 39.3843 24.764C39.3843 23.94 39.5763 23.2 39.9603 22.544C40.3523 21.888 40.8763 21.376 41.5323 21.008C42.1963 20.64 42.9243 20.456 43.7163 20.456C44.5083 20.456 45.2323 20.64 45.8883 21.008C46.5523 21.376 47.0723 21.888 47.4483 22.544C47.8323 23.2 48.0243 23.94 48.0243 24.764C48.0243 25.588 47.8323 26.332 47.4483 26.996C47.0643 27.652 46.5443 28.164 45.8883 28.532C45.2323 28.9 44.5083 29.084 43.7163 29.084ZM43.7163 27.212C44.3883 27.212 44.9243 26.988 45.3243 26.54C45.7323 26.092 45.9363 25.5 45.9363 24.764C45.9363 24.02 45.7323 23.428 45.3243 22.988C44.9243 22.54 44.3883 22.316 43.7163 22.316C43.0363 22.316 42.4923 22.536 42.0843 22.976C41.6843 23.416 41.4843 24.012 41.4843 24.764C41.4843 25.508 41.6843 26.104 42.0843 26.552C42.4923 26.992 43.0363 27.212 43.7163 27.212ZM55.5859 23.288C55.5859 23.776 55.4739 24.224 55.2499 24.632C55.0259 25.032 54.6819 25.356 54.2179 25.604C53.7539 25.852 53.1779 25.976 52.4899 25.976H51.2179V29H49.1659V20.576H52.4899C53.1619 20.576 53.7299 20.692 54.1939 20.924C54.6579 21.156 55.0059 21.476 55.2379 21.884C55.4699 22.292 55.5859 22.76 55.5859 23.288ZM52.3339 24.344C52.7259 24.344 53.0179 24.252 53.2099 24.068C53.4019 23.884 53.4979 23.624 53.4979 23.288C53.4979 22.952 53.4019 22.692 53.2099 22.508C53.0179 22.324 52.7259 22.232 52.3339 22.232H51.2179V24.344H52.3339ZM58.6702 20.576V25.616C58.6702 26.12 58.7942 26.508 59.0422 26.78C59.2902 27.052 59.6542 27.188 60.1342 27.188C60.6142 27.188 60.9822 27.052 61.2382 26.78C61.4942 26.508 61.6222 26.12 61.6222 25.616V20.576H63.6742V25.604C63.6742 26.356 63.5142 26.992 63.1942 27.512C62.8742 28.032 62.4422 28.424 61.8982 28.688C61.3622 28.952 60.7622 29.084 60.0982 29.084C59.4342 29.084 58.8382 28.956 58.3102 28.7C57.7902 28.436 57.3782 28.044 57.0742 27.524C56.7702 26.996 56.6182 26.356 56.6182 25.604V20.576H58.6702ZM67.1671 27.416H69.8551V29H65.1151V20.576H67.1671V27.416ZM76.0778 27.512H72.9338L72.4298 29H70.2818L73.3298 20.576H75.7058L78.7538 29H76.5818L76.0778 27.512ZM75.5498 25.928L74.5058 22.844L73.4738 25.928H75.5498ZM83.9775 29L82.2255 25.82H81.7335V29H79.6815V20.576H83.1255C83.7895 20.576 84.3535 20.692 84.8175 20.924C85.2895 21.156 85.6415 21.476 85.8735 21.884C86.1055 22.284 86.2215 22.732 86.2215 23.228C86.2215 23.788 86.0615 24.288 85.7415 24.728C85.4295 25.168 84.9655 25.48 84.3495 25.664L86.2935 29H83.9775ZM81.7335 24.368H83.0055C83.3815 24.368 83.6615 24.276 83.8455 24.092C84.0375 23.908 84.1335 23.648 84.1335 23.312C84.1335 22.992 84.0375 22.74 83.8455 22.556C83.6615 22.372 83.3815 22.28 83.0055 22.28H81.7335V24.368Z" fill="url(#paint0_linear_1201_645)"/>
<path d="M24.6716 35.8284L23.2574 37.2426L24.6716 35.8284ZM94.3284 35.8284L92.9142 34.4142L94.3284 35.8284ZM94.3284 12.1716L95.7426 10.7574L94.3284 12.1716ZM31.5 13H87.5V9H31.5V13ZM93.5 19V29H97.5V19H93.5ZM87.5 35H31.5V39H87.5V35ZM25.5 29V19H21.5V29H25.5ZM31.5 35C29.5578 35 28.3024 34.9958 27.3774 34.8714C26.5099 34.7548 26.238 34.5665 26.0858 34.4142L23.2574 37.2426C24.2767 38.262 25.5334 38.6595 26.8444 38.8357C28.0979 39.0042 29.6709 39 31.5 39V35ZM21.5 29C21.5 30.8291 21.4958 32.4021 21.6643 33.6556C21.8405 34.9666 22.238 36.2233 23.2574 37.2426L26.0858 34.4142C25.9335 34.262 25.7452 33.9901 25.6286 33.1226C25.5042 32.1976 25.5 30.9422 25.5 29H21.5ZM93.5 29C93.5 30.9422 93.4958 32.1976 93.3714 33.1226C93.2548 33.9901 93.0665 34.262 92.9142 34.4142L95.7426 37.2426C96.762 36.2233 97.1595 34.9666 97.3357 33.6556C97.5042 32.4021 97.5 30.8291 97.5 29H93.5ZM87.5 39C89.3291 39 90.9021 39.0042 92.1556 38.8357C93.4666 38.6595 94.7233 38.262 95.7426 37.2426L92.9142 34.4142C92.762 34.5665 92.4901 34.7548 91.6226 34.8714C90.6976 34.9958 89.4422 35 87.5 35V39ZM87.5 13C89.4422 13 90.6976 13.0042 91.6226 13.1286C92.4901 13.2452 92.762 13.4335 92.9142 13.5858L95.7426 10.7574C94.7233 9.73803 93.4666 9.34054 92.1556 9.16428C90.9021 8.99575 89.3291 9 87.5 9V13ZM97.5 19C97.5 17.1709 97.5042 15.5979 97.3357 14.3444C97.1595 13.0334 96.762 11.7767 95.7426 10.7574L92.9142 13.5858C93.0665 13.738 93.2548 14.0099 93.3714 14.8774C93.4958 15.8024 93.5 17.0578 93.5 19H97.5ZM31.5 9C29.6709 9 28.0979 8.99575 26.8444 9.16428C25.5334 9.34054 24.2767 9.73803 23.2574 10.7574L26.0858 13.5858C26.238 13.4335 26.5099 13.2452 27.3774 13.1286C28.3024 13.0042 29.5578 13 31.5 13V9ZM25.5 19C25.5 17.0578 25.5042 15.8024 25.6286 14.8774C25.7452 14.0099 25.9335 13.738 26.0858 13.5858L23.2574 10.7574C22.238 11.7767 21.8405 13.0334 21.6643 14.3444C21.4958 15.5979 21.5 17.1709 21.5 19H25.5Z" fill="url(#paint1_linear_1201_645)"/>
</g>
<defs>
<filter id="filter0_d_1201_645" x="0.5" y="0" width="118" height="72" filterUnits="userSpaceOnUse" color-interpolation-filters="sRGB">
<feFlood flood-opacity="0" result="BackgroundImageFix"/>
<feColorMatrix in="SourceAlpha" type="matrix" values="0 0 0 0 0 0 0 0 0 0 0 0 0 0 0 0 0 0 127 0" result="hardAlpha"/>
<feOffset dy="12"/>
<feGaussianBlur stdDeviation="11.5"/>
<feColorMatrix type="matrix" values="0 0 0 0 0.717647 0 0 0 0 0.545098 0 0 0 0 0.94902 0 0 0 0.1 0"/>
<feBlend mode="normal" in2="BackgroundImageFix" result="effect1_dropShadow_1201_645"/>
<feBlend mode="normal" in="SourceGraphic" in2="effect1_dropShadow_1201_645" result="shape"/>
</filter>
<linearGradient id="paint0_linear_1201_645" x1="33.6961" y1="31" x2="54.9365" y2="-4.73087" gradientUnits="userSpaceOnUse">
<stop offset="0.192708" stop-color="#8BECFF"/>
<stop offset="0.619792" stop-color="#F49CF8"/>
<stop offset="1" stop-color="#F0FE98"/>
</linearGradient>
<linearGradient id="paint1_linear_1201_645" x1="26.3235" y1="37" x2="78.7105" y2="-15.2946" gradientUnits="userSpaceOnUse">
<stop offset="0.192708" stop-color="#8BECFF"/>
<stop offset="0.619792" stop-color="#F49CF8"/>
<stop offset="1" stop-color="#F0FE98"/>
</linearGradient>
</defs>
</svg>
